Coordinates
version=1
nRows=14
nColumns=33
inDegrees=yes

Units are S.I. units (second, meters, Newtons, ...)
Angles are in degrees.

endheader
time	ground_thorax_rot_x	ground_thorax_rot_y	ground_thorax_rot_z	ground_thorax_tx	ground_thorax_ty	ground_thorax_tz	clav_prot_r	clav_elev_r	scapula_abduction_r	scapula_elevation_r	scapula_upward_rot_r	scapula_winging_r	shoulder_elv_r	plane_of_elev_r	axial_rot_r	elbow_flexion_r	pro_sup_r	wrist_flex_r	wrist_dev_r	clav_prot_l	clav_elev_l	scapula_abduction_l	scapula_elevation_l	scapula_upward_rot_l	scapula_winging_l	shoulder_elv_l	plane_of_elev_l	axial_rot_l	elbow_flexion_l	pro_sup_l	wrist_flex_l	wrist_dev_l
     10.33000000	    -40.94893621	    -12.56340049	      7.24308827	    -76.70561654	    793.26409649	     -1.15164089	      7.23299420	    -45.00000000	     36.02000837	    -45.00000000	    -34.48615167	  -3689.81015308	  -2095.42289011	     28.60907593	     81.80663652	    729.86539115	     21.44213579	     17.33536381	      9.97948987	     18.08165020	     41.01531322	    -41.96640574	    -44.89005277	    -43.61148829	   1517.37370895	  -1899.90211502	    135.48591445	   -179.99999979	   1085.29938217	     21.08406022	     11.41959001	    -19.07230852
     10.34000000	    -40.96330310	    -12.80767299	      7.64965103	    -82.13425606	    793.28231179	     -1.56355319	      7.95486747	    -45.00000000	     35.58134696	    -45.00000000	    -35.61014919	  -3690.41886733	  -2095.49094833	     28.75095720	     83.46213633	    729.84511844	     21.97386868	     17.16529644	      9.52444482	     18.18522269	     40.68063933	    -41.57695027	    -45.00000000	    -44.51671518	   1517.20261795	  -1899.58209562	    135.61832058	   -179.99999979	   1085.42386242	     21.82729190	     11.64687383	    -19.20204507
     10.35000000	    -40.85240781	    -12.96520759	      7.86921348	    -87.61838858	    793.41375620	     -1.98106891	      8.65639374	    -45.00000000	     35.73826157	    -45.00000000	    -35.10370437	  -3690.95432641	  -2095.39481891	     28.04005847	     84.52516778	    729.98982918	     22.53256689	     17.36679963	     10.01136646	     18.43535740	     40.09667474	    -41.24888605	    -45.00000000	    -45.00000000	   1516.68261632	  -1899.59484710	    136.30055354	   -179.99999979	   1085.46431835	     22.68269633	     11.30113198	    -19.28584974
     10.36000000	    -41.09610352	    -13.08530329	      8.12060975	    -93.15480432	    793.66923909	     -2.40443025	      7.43372540	    -45.00000000	     34.37553715	    -45.00000000	    -38.84996393	  -3690.56819457	  -2094.79933660	     28.95971963	     82.80487442	    729.93164281	     22.93224750	     17.32450406	      9.77266708	     17.83965933	     40.11929358	    -40.73800708	    -45.00000000	    -45.00000000	   1517.45431086	  -1899.54334166	    135.91270778	   -179.99999979	   1085.44409653	     23.08701102	     11.82478017	    -19.37872625
     10.37000000	    -41.12960373	    -13.12411144	      8.13829096	    -98.71381402	    794.04888215	     -2.83130441	      7.61473178	    -45.00000000	     34.11280843	    -45.00000000	    -39.67942352	  -3690.72228764	  -2094.59800129	     28.85737152	     82.91439605	    730.01248862	     23.71350525	     17.45468046	      9.90322914	     17.74704300	     40.02439892	    -40.33439543	    -45.00000000	    -45.00000000	   1517.59147530	  -1899.68960777	    136.10041222	   -179.99999979	   1085.44829720	     23.82281811	     11.89521940	    -19.47355505
     10.38000000	    -41.17947393	    -13.09835894	      8.19262060	   -104.27917475	    794.55639940	     -3.25785574	      7.71280728	    -45.00000000	     33.64586867	    -45.00000000	    -40.85606130	  -3690.85406577	  -2094.28989709	     28.90688026	     82.99916561	    730.13056564	     24.59921148	     17.53798364	      9.89850289	     17.59116892	     39.98872868	    -39.81942846	    -45.00000000	    -45.00000000	   1517.70896377	  -1899.62657080	    136.18244632	   -179.99999979	   1085.53902624	     24.69414084	     11.95518486	    -19.62740368
     10.39000000	    -41.23083947	    -13.04787770	      8.23145012	   -109.83347789	    795.19209715	     -3.67930769	      7.79961436	    -45.00000000	     33.20287087	    -45.00000000	    -41.81987782	  -3691.00398962	  -2094.05486568	     28.87373256	     83.28807733	    730.26169423	     25.62323773	     17.61279812	      9.85631556	     17.39640542	     39.92964050	    -39.42951893	    -45.00000000	    -45.00000000	   1517.82848261	  -1899.65858321	    136.32720467	   -179.99999979	   1085.58443081	     25.79229759	     11.96709470	    -19.80848451
     10.40000000	    -41.30259560	    -12.91430013	      8.14334444	   -115.36240492	    795.95386695	     -4.09072711	      7.93981912	    -45.00000000	     32.94041567	    -45.00000000	    -42.36209149	  -3691.42034229	  -2094.08819348	     28.90678889	     84.34048687	    730.41604556	     26.71635268	     17.59255289	      9.53033989	     17.14658535	     39.85755301	    -39.13778773	    -45.00000000	    -45.00000000	   1517.93380498	  -1899.72103355	    136.51425006	   -179.99999979	   1085.62114141	     26.86021328	     12.20248385	    -20.04438359
     10.41000000	    -41.30549263	    -12.82623586	      8.19451252	   -120.84327590	    796.83867645	     -4.48710446	      8.13609453	    -45.00000000	     32.61594019	    -45.00000000	    -43.03454791	  -3691.84530175	  -2094.03334700	     28.94432424	     85.34077992	    730.50224092	     27.79370257	     17.58843930	      9.30929242	     17.04675332	     39.72594356	    -38.69194631	    -45.00000000	    -45.00000000	   1518.02261685	  -1899.70467624	    136.59014740	   -179.99999979	   1085.70973081	     27.92884908	     12.31731166	    -20.27738184
     10.42000000	    -41.37695828	    -12.80000546	      8.18736039	   -126.25738445	    797.84402416	     -4.86461016	      8.03113023	    -45.00000000	     32.29658735	    -45.00000000	    -44.19272494	  -3691.81836181	  -2093.68091284	     28.90601253	     84.60998762	    730.65936442	     28.94923550	     17.79839106	      9.48966244	     16.87871856	     39.71922490	    -38.26642666	    -45.00000000	    -45.00000000	   1518.21837129	  -1899.73055761	    136.72085903	   -179.99999979	   1085.80704018	     28.99564846	     12.21600033	    -20.45491360
     10.43000000	    -41.37166865	    -12.68246439	      8.14886471	   -131.58234295	    798.96540435	     -5.22020928	      8.13853317	    -45.00000000	     32.05004893	    -45.00000000	    -45.00000000	  -3692.06931882	  -2093.48958495	     28.96088905	     84.66519959	    730.78457763	     30.18511681	     17.90642629	      9.46496466	     16.78466357	     39.59952369	    -37.85108774	    -45.00000000	    -45.00000000	   1518.26800495	  -1899.74201478	    136.85160507	   -179.99999979	   1085.91898530	     30.10096671	     12.18679636	    -20.66365166
     10.44000000	    -41.38701812	    -12.45358807	      8.02018508	   -136.79394209	    800.20079517	     -5.55170245	      8.25339882	    -45.00000000	     31.95030313	    -45.00000000	    -45.00000000	  -3692.53711664	  -2093.52908583	     28.83917353	     85.64836076	    730.93491283	     31.31169247	     17.93107983	      9.23425874	     16.61515476	     39.57292952	    -37.55594456	    -45.00000000	    -45.00000000	   1518.34016454	  -1899.76201846	    136.95196754	   -179.99999979	   1086.00130963	     31.12877584	     12.31575024	    -20.93573601
     10.45000000	    -41.38548443	    -12.24543740	      7.84839545	   -141.86829873	    801.54928487	     -5.85775339	      8.27226220	    -45.00000000	     31.95609221	    -45.00000000	    -45.00000000	  -3692.83961948	  -2093.48414729	     28.63342329	     85.96116118	    731.07309536	     32.30467105	     18.06407406	      9.24910561	     16.53955057	     39.45318747	    -37.21812405	    -45.00000000	    -45.00000000	   1518.38944293	  -1899.77317371	    137.08540518	   -179.99999979	   1086.10556960	     32.18210395	     12.23484171	    -21.13031471
     10.46000000	    -41.38096334	    -11.97831239	      7.67234786	   -146.78203228	    803.00600538	     -6.13773640	      8.36241364	    -45.00000000	     31.89665528	    -45.00000000	    -45.00000000	  -3693.22745519	  -2093.45678744	     28.53025724	     86.56276542	    731.22064481	     33.14293162	     18.12009046	      9.11005099	     16.42698516	     39.36825136	    -36.92212708	    -45.00000000	    -45.00000000	   1518.42117089	  -1899.76446480	    137.18525980	   -179.99999979	   1086.21728791	     33.22710606	     12.26757747	    -21.38364805
